<svg width="64" height="59" viewBox="0 0 64 59" fill="none" xmlns="http://www.w3.org/2000/svg">
<path d="M4.99445 25.4999C2.78531 25.4999 0.994446 27.2907 0.994446 29.4999C0.994446 31.709 2.78531 33.4999 4.99445 33.4999V25.4999ZM62.8229 32.3283C64.385 30.7662 64.385 28.2335 62.8229 26.6715L37.367 1.21561C35.8049 -0.34649 33.2723 -0.34649 31.7102 1.21561C30.1481 2.7777 30.1481 5.31036 31.7102 6.87246L54.3376 29.4999L31.7102 52.1273C30.1481 53.6894 30.1481 56.2221 31.7102 57.7841C33.2723 59.3462 35.8049 59.3462 37.367 57.7841L62.8229 32.3283ZM4.99445 33.4999H59.9944V25.4999H4.99445V33.4999Z" fill="#303030"/>
</svg>
